<svg xmlns="http://www.w3.org/2000/svg" viewBox="0 0 500 500" width="100%" height="100%">

  <defs>
    <filter id="glow-crimson" x="-20%" y="-20%" width="140%" height="140%">
      <feGaussianBlur stdDeviation="8" result="blur" />
      <feMerge>
        <feMergeNode in="blur" />
        <feMergeNode in="SourceGraphic" />
      </feMerge>
    </filter>
    <filter id="glow-cyan" x="-20%" y="-20%" width="140%" height="140%">
      <feGaussianBlur stdDeviation="7" result="blur" />
      <feMerge>
        <feMergeNode in="blur" />
        <feMergeNode in="SourceGraphic" />
      </feMerge>
    </filter>
    <filter id="glow-violet" x="-20%" y="-20%" width="140%" height="140%">
      <feGaussianBlur stdDeviation="9" result="blur" />
      <feMerge>
        <feMergeNode in="blur" />
        <feMergeNode in="SourceGraphic" />
      </feMerge>
    </filter>
    <radialGradient id="bg-spotlight" cx="50%" cy="50%" r="65%">
      <stop offset="0%" stop-color="#1E1735" stop-opacity="0.8" />
      <stop offset="60%" stop-color="#0E101A" stop-opacity="0.9" />
      <stop offset="100%" stop-color="#08090E" stop-opacity="1" />
    </radialGradient>
    <linearGradient id="grad-cyber" x1="0%" y1="0%" x2="100%" y2="100%">
      <stop offset="0%" stop-color="#FF1A53" />
      <stop offset="50%" stop-color="#8B2DF5" />
      <stop offset="100%" stop-color="#00F2FE" />
    </linearGradient>
    <linearGradient id="metal-dark" x1="0%" y1="0%" x2="0%" y2="100%">
      <stop offset="0%" stop-color="#34384A" />
      <stop offset="50%" stop-color="#1C1F2B" />
      <stop offset="100%" stop-color="#12141D" />
    </linearGradient>
    <linearGradient id="metal-titanium" x1="0%" y1="0%" x2="100%" y2="100%">
      <stop offset="0%" stop-color="#697184" />
      <stop offset="50%" stop-color="#3F4658" />
      <stop offset="100%" stop-color="#232733" />
    </linearGradient>
    <linearGradient id="neon-flame" x1="0%" y1="0%" x2="100%" y2="0%">
      <stop offset="0%" stop-color="#FF1361" />
      <stop offset="100%" stop-color="#FF6B00" />
    </linearGradient>
    <linearGradient id="neon-cyan" x1="0%" y1="0%" x2="100%" y2="100%">
      <stop offset="0%" stop-color="#00F2FE" />
      <stop offset="100%" stop-color="#4FACFE" />
    </linearGradient>
    <linearGradient id="neon-lime" x1="0%" y1="0%" x2="100%" y2="100%">
      <stop offset="0%" stop-color="#00FFA3" />
      <stop offset="100%" stop-color="#00D26A" />
    </linearGradient>
    <pattern id="grid-dots" x="0" y="0" width="20" height="20" patternUnits="userSpaceOnUse">
      <circle cx="2" cy="2" r="1" fill="#252B3B" opacity="0.4" />
    </pattern>
  </defs>

  <rect width="500" height="500" fill="url(#bg-spotlight)" rx="20"/>
  <rect width="500" height="500" fill="url(#grid-dots)" rx="20"/>

  <!-- Curved Monitor Screen -->
  <g transform="translate(250, 190)">
    <path d="M -160 20 Q 0 -20 160 20 L 160 120 Q 0 80 -160 120 Z" fill="#0C0E17" stroke="#2B3245" stroke-width="3"/>
    <!-- Cyber wallpaper gradient on screen -->
    <path d="M -150 25 Q 0 -12 150 25 L 150 110 Q 0 74 -150 110 Z" fill="url(#grad-cyber)" opacity="0.8"/>
    
    <!-- Monitor Stand -->
    <polygon points="0,100 -25,160 25,160" fill="#1F2435"/>
    <path d="M -45 160 L 45 160" stroke="#00FFA3" stroke-width="3" filter="url(#glow-cyan)"/>
  </g>

  <!-- Glowing Desk Mat + Compact Keyboard -->
  <g transform="translate(250, 370)">
    <rect x="-140" y="-30" width="280" height="60" rx="8" fill="#121522" stroke="#FF1A53" stroke-width="2" filter="url(#glow-crimson)"/>
    <rect x="-100" y="-20" width="120" height="40" rx="4" fill="#1B1F2D" stroke="#31384E" stroke-width="1"/>
    <ellipse cx="60" cy="0" rx="16" ry="24" fill="#1B1F2D" stroke="#00F2FE" stroke-width="1.5"/>
  </g>
</svg>