<svg xmlns="http://www.w3.org/2000/svg" viewBox="0 0 500 500" width="100%" height="100%">

  <defs>
    <filter id="glow-crimson" x="-20%" y="-20%" width="140%" height="140%">
      <feGaussianBlur stdDeviation="8" result="blur" />
      <feMerge>
        <feMergeNode in="blur" />
        <feMergeNode in="SourceGraphic" />
      </feMerge>
    </filter>
    <filter id="glow-cyan" x="-20%" y="-20%" width="140%" height="140%">
      <feGaussianBlur stdDeviation="7" result="blur" />
      <feMerge>
        <feMergeNode in="blur" />
        <feMergeNode in="SourceGraphic" />
      </feMerge>
    </filter>
    <filter id="glow-violet" x="-20%" y="-20%" width="140%" height="140%">
      <feGaussianBlur stdDeviation="9" result="blur" />
      <feMerge>
        <feMergeNode in="blur" />
        <feMergeNode in="SourceGraphic" />
      </feMerge>
    </filter>
    <radialGradient id="bg-spotlight" cx="50%" cy="50%" r="65%">
      <stop offset="0%" stop-color="#1E1735" stop-opacity="0.8" />
      <stop offset="60%" stop-color="#0E101A" stop-opacity="0.9" />
      <stop offset="100%" stop-color="#08090E" stop-opacity="1" />
    </radialGradient>
    <linearGradient id="grad-cyber" x1="0%" y1="0%" x2="100%" y2="100%">
      <stop offset="0%" stop-color="#FF1A53" />
      <stop offset="50%" stop-color="#8B2DF5" />
      <stop offset="100%" stop-color="#00F2FE" />
    </linearGradient>
    <linearGradient id="metal-dark" x1="0%" y1="0%" x2="0%" y2="100%">
      <stop offset="0%" stop-color="#34384A" />
      <stop offset="50%" stop-color="#1C1F2B" />
      <stop offset="100%" stop-color="#12141D" />
    </linearGradient>
    <linearGradient id="metal-titanium" x1="0%" y1="0%" x2="100%" y2="100%">
      <stop offset="0%" stop-color="#697184" />
      <stop offset="50%" stop-color="#3F4658" />
      <stop offset="100%" stop-color="#232733" />
    </linearGradient>
    <linearGradient id="neon-flame" x1="0%" y1="0%" x2="100%" y2="0%">
      <stop offset="0%" stop-color="#FF1361" />
      <stop offset="100%" stop-color="#FF6B00" />
    </linearGradient>
    <linearGradient id="neon-cyan" x1="0%" y1="0%" x2="100%" y2="100%">
      <stop offset="0%" stop-color="#00F2FE" />
      <stop offset="100%" stop-color="#4FACFE" />
    </linearGradient>
    <linearGradient id="neon-lime" x1="0%" y1="0%" x2="100%" y2="100%">
      <stop offset="0%" stop-color="#00FFA3" />
      <stop offset="100%" stop-color="#00D26A" />
    </linearGradient>
    <pattern id="grid-dots" x="0" y="0" width="20" height="20" patternUnits="userSpaceOnUse">
      <circle cx="2" cy="2" r="1" fill="#252B3B" opacity="0.4" />
    </pattern>
  </defs>

  <rect width="500" height="500" fill="url(#bg-spotlight)" rx="20"/>
  <rect width="500" height="500" fill="url(#grid-dots)" rx="20"/>

  <g transform="translate(250, 240)">
    <ellipse cx="0" cy="-30" rx="190" ry="70" fill="url(#neon-cyan)" opacity="0.15" filter="url(#glow-cyan)"/>
    <path d="M -180 -50 Q 0 -85 180 -50 L 180 50 Q 0 15 -180 50 Z" fill="#0A0D15" stroke="#2F364C" stroke-width="3"/>
    <path d="M -172 -44 Q 0 -77 172 -44 L 172 44 Q 0 11 -172 44 Z" fill="url(#grad-cyber)" opacity="0.9"/>
    <polygon points="0,40 -20,130 20,130" fill="#1C202E"/>
    <path d="M -50 130 L 50 130" stroke="#00F2FE" stroke-width="4" stroke-linecap="round" filter="url(#glow-cyan)"/>
  </g>

  <rect x="175" y="420" width="150" height="30" rx="15" fill="#121522" stroke="#00F2FE" stroke-width="1"/>
  <text x="250" y="440" fill="#00F2FE" font-family="'Inter', sans-serif" font-size="11" font-weight="700" text-anchor="middle" letter-spacing="1">49" 240Hz 0.03ms OLED</text>
</svg>